<svg width="24" height="24" viewBox="0 0 24 24" fill="none" xmlns="http://www.w3.org/2000/svg">
<path fill-rule="evenodd" clip-rule="evenodd" d="M10.1465 17.1465C6.28648 17.1465 3.14648 14.0065 3.14648 10.1465C3.14648 6.2865 6.28648 3.1465 10.1465 3.1465C14.0065 3.1465 17.1465 6.2865 17.1465 10.1465C17.1465 14.0065 14.0065 17.1465 10.1465 17.1465ZM22.8535 21.4395L17.1715 15.7575C18.4045 14.2175 19.1465 12.2685 19.1465 10.1465C19.1465 5.1845 15.1085 1.1465 10.1465 1.1465C5.18448 1.1465 1.14648 5.1845 1.14648 10.1465C1.14648 15.1085 5.18448 19.1465 10.1465 19.1465C12.2685 19.1465 14.2175 18.4045 15.7575 17.1715L21.4395 22.8535L22.8535 21.4395Z" fill="currentColor"/>
</svg>
