<svg width="24" height="24" viewBox="0 0 24 24" fill="none" xmlns="http://www.w3.org/2000/svg">
<path d="M12 6.2998C9.8 6.2998 8 8.0998 8 10.2998C8 12.4998 9.8 14.2998 12 14.2998C14.2 14.2998 16 12.4998 16 10.2998C16 8.0998 14.2 6.2998 12 6.2998ZM12 12.2998C10.9 12.2998 10 11.3998 10 10.2998C10 9.1998 10.9 8.2998 12 8.2998C13.1 8.2998 14 9.1998 14 10.2998C14 11.3998 13.1 12.2998 12 12.2998Z" fill="#879DB2"/>
<path d="M12 0C5.4 0 0 5.4 0 12C0 18.6 5.4 24 12 24C18.6 24 24 18.6 24 12C24 5.4 18.6 0 12 0ZM12 22C9.8 22 7.9 21.3 6.2 20.2C6.9 18.5 9.1 17.4 12 17.4C14.9 17.4 17.1 18.5 17.8 20.2C16.1 21.3 14.2 22 12 22ZM19.3 18.8C18.1 16.7 15.4 15.3 12 15.3C8.5 15.3 5.8 16.7 4.7 18.8C3 17 2 14.6 2 12C2 6.5 6.5 2 12 2C17.5 2 22 6.5 22 12C22 14.6 21 17 19.3 18.8Z" fill="#879DB2"/>
</svg>
